<mxfile host="app.diagrams.net" modified="2021-08-11T03:01:14.907Z" agent="5.0 (Macintosh; Intel Mac OS X 10_15_7) AppleWebKit/537.36 (KHTML, like Gecko) Chrome/92.0.4515.131 Safari/537.36" etag="dTDaqUuDVeZF3Dg4Afu4" version="14.9.6" type="github">
  <diagram id="5coowNinIpgMLERGcSp0" name="Page-1">
    <mxGraphModel dx="1414" dy="758" grid="1" gridSize="10" guides="1" tooltips="1" connect="1" arrows="1" fold="1" page="1" pageScale="1" pageWidth="827" pageHeight="1169" math="0" shadow="0">
      <root>
        <mxCell id="0" />
        <mxCell id="1" parent="0" />
        <mxCell id="2n6tiBj-hDdNAyMqDgvf-1" value="iaas" style="shape=ext;double=1;rounded=0;whiteSpace=wrap;html=1;" vertex="1" parent="1">
          <mxGeometry x="180" y="560" width="480" height="50" as="geometry" />
        </mxCell>
        <mxCell id="2n6tiBj-hDdNAyMqDgvf-2" value="paas&lt;br&gt;&lt;br&gt;&lt;br&gt;&lt;br&gt;&lt;br&gt;&lt;br&gt;&lt;br&gt;&lt;br&gt;" style="shape=ext;double=1;rounded=0;whiteSpace=wrap;html=1;" vertex="1" parent="1">
          <mxGeometry x="180" y="380" width="480" height="160" as="geometry" />
        </mxCell>
        <mxCell id="2n6tiBj-hDdNAyMqDgvf-3" value="服务发现" style="shape=ext;double=1;rounded=0;whiteSpace=wrap;html=1;" vertex="1" parent="1">
          <mxGeometry x="210" y="420" width="120" height="30" as="geometry" />
        </mxCell>
        <mxCell id="2n6tiBj-hDdNAyMqDgvf-4" value="监控" style="shape=ext;double=1;rounded=0;whiteSpace=wrap;html=1;" vertex="1" parent="1">
          <mxGeometry x="350" y="420" width="120" height="30" as="geometry" />
        </mxCell>
        <mxCell id="2n6tiBj-hDdNAyMqDgvf-5" value="日志" style="shape=ext;double=1;rounded=0;whiteSpace=wrap;html=1;" vertex="1" parent="1">
          <mxGeometry x="490" y="420" width="120" height="30" as="geometry" />
        </mxCell>
        <mxCell id="2n6tiBj-hDdNAyMqDgvf-8" value="技术中台" style="shape=ext;double=1;rounded=0;whiteSpace=wrap;html=1;" vertex="1" parent="1">
          <mxGeometry x="180" y="190" width="490" height="150" as="geometry" />
        </mxCell>
        <mxCell id="2n6tiBj-hDdNAyMqDgvf-9" value="调度" style="shape=ext;double=1;rounded=0;whiteSpace=wrap;html=1;" vertex="1" parent="1">
          <mxGeometry x="210" y="280" width="120" height="30" as="geometry" />
        </mxCell>
        <mxCell id="2n6tiBj-hDdNAyMqDgvf-10" value="消息发送" style="shape=ext;double=1;rounded=0;whiteSpace=wrap;html=1;" vertex="1" parent="1">
          <mxGeometry x="354" y="280" width="120" height="30" as="geometry" />
        </mxCell>
        <mxCell id="2n6tiBj-hDdNAyMqDgvf-11" value="iam" style="shape=ext;double=1;rounded=0;whiteSpace=wrap;html=1;" vertex="1" parent="1">
          <mxGeometry x="490" y="280" width="120" height="30" as="geometry" />
        </mxCell>
      </root>
    </mxGraphModel>
  </diagram>
</mxfile>
